<?xml version="1.0" encoding="utf-8"?>
<!-- Generator: Adobe Illustrator 17.1.0, SVG Export Plug-In . SVG Version: 6.00 Build 0)  -->
<!DOCTYPE svg PUBLIC "-//W3C//DTD SVG 1.1//EN" "http://www.w3.org/Graphics/SVG/1.1/DTD/svg11.dtd">
<svg version="1.1" id="Capa_1" xmlns="http://www.w3.org/2000/svg" xmlns:xlink="http://www.w3.org/1999/xlink" x="0px" y="0px"
	 viewBox="0 0 147.4 90.7" enable-background="new 0 0 147.4 90.7" xml:space="preserve">
<g>
	<g>
		<g>
			<path fill="#1E1E1C" d="M5.8,58.6c-1.6-1.2-2.4-2.9-2.4-5c0-1.4,0.4-2.7,1.3-4c0.8-1.2,2-2.2,3.5-2.9c1.5-0.7,3.3-1,5.3-1
				c2.1,0,4,0.4,5.5,1.1s2.8,1.7,3.7,3c0.8,1.3,1.3,2.7,1.3,4.2h-6c0-0.7-0.2-1.3-0.5-1.9c-0.4-0.6-0.8-1-1.5-1.4
				c-0.7-0.4-1.5-0.5-2.5-0.5c-1.4,0-2.4,0.3-3.1,0.9c-0.7,0.6-1.1,1.4-1.1,2.3c0,0.6,0.2,1,0.5,1.5c0.3,0.4,0.8,0.8,1.6,1.1
				c0.8,0.3,1.8,0.6,3.2,0.9c2.1,0.5,3.9,1,5.3,1.6c1.4,0.6,2.5,1.5,3.2,2.5c0.7,1,1.1,2.3,1.1,3.9c0,1.5-0.4,2.9-1.3,4.1
				c-0.9,1.2-2.1,2.1-3.7,2.8s-3.4,1-5.5,1c-2.3,0-4.2-0.4-5.9-1.3c-1.7-0.8-2.9-1.9-3.8-3.2S2.6,65.5,2.6,64h5.8
				c0.1,1.5,0.6,2.5,1.6,3.2c1,0.7,2.2,1,3.7,1s2.6-0.3,3.4-0.8c0.8-0.6,1.2-1.3,1.2-2.2c0-0.6-0.2-1.1-0.4-1.6
				c-0.3-0.4-0.8-0.8-1.6-1.2c-0.8-0.4-1.9-0.7-3.4-1C9.7,60.7,7.4,59.8,5.8,58.6z"/>
			<path fill="#1E1E1C" d="M27.8,72.1V46.2h6v26L27.8,72.1L27.8,72.1z"/>
			<path fill="#1E1E1C" d="M74.6,48c1.5,1.6,2.2,4,2.2,7.3v16.8h-6V55.3c0-1.8-0.4-3-1.1-3.7s-1.9-1-3.4-1c-1.3,0-2.3,0.3-3.1,1
				c-0.8,0.7-1.5,1.6-1.8,2.7v0.6v17.3h-6V55.4c0-1.7-0.4-3-1.1-3.7s-1.8-1.1-3.3-1.1c-2.3,0-3.9,0.9-4.9,2.8v18.8h-6v-26h5.6
				l0.2,2.7c0.9-1,1.9-1.8,3.2-2.4s2.7-0.8,4.3-0.8c1.6,0,3.1,0.3,4.3,1c1.2,0.6,2.1,1.6,2.8,3c0.9-1.3,2-2.2,3.3-2.9
				c1.4-0.7,2.9-1,4.6-1C71.1,45.7,73.2,46.5,74.6,48z"/>
			<path fill="#1E1E1C" d="M100.9,47.4c1.5,1.1,2.7,2.6,3.4,4.6c0.8,2,1.2,4.3,1.2,6.9v0.5c0,2.6-0.4,4.8-1.2,6.8
				c-0.8,2-1.9,3.5-3.4,4.7c-1.5,1.1-3.3,1.7-5.4,1.7c-2.8,0-5.1-0.9-6.8-2.8v8.8h-6V46.2h5.5l0.3,2.6c1.7-2.1,4.1-3.1,6.9-3.1
				C97.5,45.7,99.4,46.3,100.9,47.4z M99.6,58.9c0-2.5-0.5-4.5-1.5-6c-1-1.6-2.5-2.3-4.4-2.3c-2.3,0-4,1-5.1,2.9v11.4
				c1,2,2.7,3,5.1,3c1.9,0,3.4-0.8,4.4-2.3c0.9-1.6,1.5-3.6,1.5-6.1V58.9z"/>
			<path fill="#1E1E1C" d="M110.7,72.1V38.8h6v33.4H110.7z"/>
			<path fill="#1E1E1C" d="M144.9,61H128c0.1,1.3,0.5,2.5,1,3.5c0.6,1,1.4,1.8,2.3,2.4c1,0.6,2.1,0.9,3.4,0.9c2.7,0,4.9-1,6.5-3.2
				l3.2,3.1c-0.9,1.4-2.2,2.6-3.9,3.5c-1.7,0.9-3.7,1.4-6.1,1.4c-2.5,0-4.7-0.5-6.6-1.7c-1.9-1.1-3.3-2.6-4.3-4.5
				c-1-1.9-1.5-4-1.5-6.4v-1c0-2.7,0.5-5,1.5-7c1-2,2.5-3.6,4.2-4.7c1.8-1.1,3.8-1.7,6.1-1.7c2.5,0,4.5,0.5,6.2,1.6
				c1.7,1.1,2.9,2.6,3.8,4.5c0.8,1.9,1.3,4.2,1.3,6.7L144.9,61L144.9,61z M139,56.3c-0.1-1.7-0.5-3.1-1.4-4.1
				c-0.8-1.1-2.1-1.6-3.9-1.6c-1.6,0-2.8,0.5-3.8,1.6c-0.9,1.1-1.6,2.6-1.8,4.6h10.9L139,56.3L139,56.3z"/>
		</g>
		<g>
			<path fill="#F7EA40" d="M64.8,29.2c-0.8-1.6-2.8-2.3-4.4-1.5c-0.4,0.2-0.8,0.5-1.1,0.9l-4.8-2.4c0.9-2.2,0.6-4.8-1-6.7
				c-2-2.6-5.6-3.2-8.4-1.7l-6.3-7.9c1.6-2.2,1.6-5.3-0.2-7.5c-2.1-2.7-6-3.1-8.7-0.9c-2.7,2.1-3.1,6-0.9,8.7c1.7,2.1,4.6,2.9,7,1.9
				l6.5,8.1c-1.3,2.1-1.4,4.7-0.2,6.9L34,33.7c-1.8-1.4-4.3-1.4-6.1,0.1c-2.1,1.7-2.5,4.8-0.8,6.9c1.7,2.1,4.9,2.5,7,0.8
				c1.8-1.4,2.3-3.7,1.6-5.6l8.6-6.9c2.4,1.8,5.8,1.9,8.3-0.1c0.4-0.3,0.8-0.7,1.1-1.1l5,2.6c-0.1,0.6,0.1,1.2,0.3,1.8
				c0.8,1.6,2.8,2.3,4.4,1.5C64.9,32.8,65.6,30.8,64.8,29.2z"/>
			<circle fill="#F7EA40" cx="56.8" cy="8.3" r="4.2"/>
		</g>
	</g>
	<g>
		<path fill="#888787" d="M74.2,90.7c-1,0-1.8-0.3-2.4-0.9c-0.5-0.6-0.8-1.4-0.8-2.5c0-0.5,0.1-1,0.3-1.4s0.4-0.8,0.7-1
			c0.3-0.3,0.6-0.5,1-0.6c0.4-0.2,0.8-0.2,1.3-0.2c0.3,0,0.5,0,0.7,0.1c0.2,0.1,0.4,0.1,0.6,0.2c0.2,0.1,0.3,0.1,0.4,0.2
			c0.1,0.1,0.2,0.1,0.3,0.1l-0.4,1.1c-0.2-0.1-0.4-0.2-0.7-0.3s-0.6-0.1-0.9-0.1c-0.2,0-0.4,0.1-0.6,0.1c-0.2,0.1-0.4,0.2-0.6,0.4
			c-0.2,0.2-0.3,0.4-0.4,0.6c-0.1,0.3-0.2,0.6-0.2,0.9c0,0.3,0.1,0.6,0.1,0.8c0.1,0.3,0.2,0.5,0.3,0.7s0.3,0.3,0.6,0.4
			c0.2,0.1,0.5,0.2,0.8,0.2c0.2,0,0.4,0,0.6-0.1c0.2,0,0.3-0.1,0.5-0.1c0.1-0.1,0.3-0.1,0.4-0.1c0.1-0.1,0.2-0.1,0.3-0.1l0.4,1.1
			c-0.2,0.1-0.5,0.2-0.8,0.3C75.1,90.7,74.6,90.7,74.2,90.7z"/>
		<path fill="#888787" d="M79.6,90.7c-0.5,0-0.8-0.1-1.1-0.2c-0.3-0.1-0.6-0.3-0.8-0.5c-0.2-0.2-0.4-0.5-0.5-0.8
			c-0.1-0.3-0.2-0.7-0.2-1v-4h1.5V88c0,0.3,0.1,0.5,0.1,0.7c0.1,0.2,0.2,0.3,0.3,0.5c0.1,0.1,0.2,0.2,0.4,0.3
			c0.2,0.1,0.3,0.1,0.5,0.1c0.4,0,0.6-0.1,0.8-0.3c0.2-0.2,0.3-0.6,0.3-1.1v-3.9h1.5v4c0,0.4-0.1,0.7-0.2,1s-0.3,0.6-0.5,0.8
			c-0.2,0.2-0.5,0.4-0.8,0.5C80.5,90.7,80.1,90.7,79.6,90.7z"/>
		<path fill="#888787" d="M87.9,89.4v1.3h-4.3v-6.4h1.5v5.2C85.1,89.4,87.9,89.4,87.9,89.4z"/>
		<path fill="#888787" d="M92.8,84.2v1.3h-1.9v5.2h-1.5v-5.2h-1.9v-1.3H92.8z"/>
		<path fill="#888787" d="M96.2,90.7c-0.5,0-0.8-0.1-1.1-0.2c-0.3-0.1-0.6-0.3-0.8-0.5c-0.2-0.2-0.4-0.5-0.5-0.8
			c-0.1-0.3-0.2-0.7-0.2-1v-4H95V88c0,0.3,0.1,0.5,0.1,0.7c0.1,0.2,0.2,0.3,0.3,0.5c0.1,0.1,0.2,0.2,0.4,0.3
			c0.2,0.1,0.3,0.1,0.5,0.1c0.4,0,0.6-0.1,0.8-0.3c0.2-0.2,0.3-0.6,0.3-1.1v-3.9h1.5v4c0,0.4-0.1,0.7-0.2,1s-0.3,0.6-0.5,0.8
			c-0.2,0.2-0.5,0.4-0.8,0.5C97,90.7,96.6,90.7,96.2,90.7z"/>
		<path fill="#888787" d="M102,84.1c0.9,0,1.7,0.2,2.2,0.5c0.5,0.4,0.8,0.9,0.8,1.6c0,0.5-0.1,0.8-0.3,1.1c-0.2,0.3-0.5,0.5-0.9,0.7
			c0.1,0.2,0.3,0.4,0.4,0.6c0.2,0.2,0.3,0.4,0.4,0.6c0.2,0.2,0.3,0.5,0.4,0.7c0.1,0.3,0.3,0.5,0.4,0.7h-1.6
			c-0.1-0.2-0.3-0.4-0.4-0.6c-0.1-0.2-0.3-0.4-0.4-0.6c-0.1-0.2-0.3-0.4-0.4-0.6c-0.1-0.2-0.3-0.4-0.4-0.5h-0.7v2.3h-1.5v-6.3
			c0.3-0.1,0.6-0.1,1-0.1C101.5,84.1,101.7,84.1,102,84.1z M102.1,85.3c-0.1,0-0.2,0-0.3,0c-0.1,0-0.2,0-0.3,0v1.7h0.4
			c0.5,0,0.9-0.1,1.1-0.2c0.2-0.2,0.4-0.4,0.4-0.7c0-0.3-0.1-0.5-0.4-0.7C102.9,85.4,102.5,85.3,102.1,85.3z"/>
		<path fill="#888787" d="M106.2,90.6v-6.4h4.3v1.2h-2.9v1.3h2.6v1.2h-2.6v1.6h3.1v1.2H106.2z"/>
		<path fill="#888787" d="M113.5,88.9c0-0.2,0.1-0.5,0.1-0.6c0.1-0.2,0.2-0.4,0.3-0.5c0.1-0.2,0.3-0.3,0.4-0.4
			c0.2-0.1,0.3-0.2,0.5-0.3c-0.2-0.2-0.3-0.4-0.4-0.6c-0.2-0.2-0.2-0.4-0.2-0.7c0-0.5,0.2-0.9,0.5-1.3c0.3-0.3,0.8-0.4,1.4-0.4
			c0.3,0,0.5,0.1,0.8,0.1c0.2,0.1,0.4,0.2,0.5,0.3c0.2,0.2,0.3,0.3,0.3,0.5c0.1,0.2,0.1,0.4,0.1,0.6c0,0.4-0.1,0.7-0.3,1
			c-0.2,0.3-0.5,0.5-0.8,0.7l1,1c0.1-0.1,0.1-0.3,0.2-0.5c0.1-0.2,0.1-0.4,0.1-0.5l1.1,0.2c0,0.1-0.1,0.3-0.1,0.4
			c-0.1,0.2-0.1,0.3-0.1,0.4c-0.1,0.2-0.1,0.3-0.2,0.4c-0.1,0.2-0.1,0.3-0.2,0.4c0.2,0.2,0.4,0.5,0.6,0.7s0.4,0.5,0.5,0.8h-1.4
			c-0.1-0.1-0.1-0.2-0.2-0.3c-0.1-0.1-0.2-0.2-0.3-0.3c-0.3,0.2-0.5,0.4-0.8,0.5c-0.3,0.2-0.7,0.2-1.1,0.2c-0.4,0-0.8-0.1-1.1-0.2
			c-0.3-0.1-0.5-0.3-0.7-0.4s-0.3-0.4-0.4-0.6C113.6,89.3,113.5,89.1,113.5,88.9z M114.8,88.7c0,0.1,0,0.2,0.1,0.3
			c0.1,0.1,0.1,0.2,0.2,0.3c0.1,0.1,0.2,0.2,0.3,0.2c0.1,0.1,0.3,0.1,0.5,0.1c0.3,0,0.5-0.1,0.7-0.1s0.4-0.2,0.5-0.3l-1.5-1.5
			c-0.1,0.1-0.2,0.1-0.3,0.2c-0.1,0.1-0.2,0.2-0.2,0.2c-0.1,0.1-0.1,0.2-0.2,0.3C114.8,88.5,114.8,88.6,114.8,88.7z M116.6,85.5
			c0-0.2-0.1-0.3-0.2-0.4S116.2,85,116,85c-0.2,0-0.4,0.1-0.5,0.2s-0.2,0.3-0.2,0.5c0,0.2,0.1,0.3,0.2,0.5c0.1,0.2,0.2,0.3,0.4,0.4
			c0.2-0.1,0.4-0.3,0.5-0.4C116.5,86,116.6,85.8,116.6,85.5z"/>
		<path fill="#888787" d="M127.3,84.2v1.3h-1.9v5.2h-1.5v-5.2h-1.9v-1.3H127.3z"/>
		<path fill="#888787" d="M128.2,90.6v-6.4h4.3v1.2h-2.9v1.3h2.6v1.2h-2.6v1.6h3.1v1.2H128.2z"/>
		<path fill="#888787" d="M136.6,90.7c-1,0-1.8-0.3-2.4-0.9c-0.5-0.6-0.8-1.4-0.8-2.5c0-0.5,0.1-1,0.3-1.4c0.2-0.4,0.4-0.8,0.7-1
			c0.3-0.3,0.6-0.5,1-0.6c0.4-0.2,0.8-0.2,1.3-0.2c0.3,0,0.5,0,0.7,0.1s0.4,0.1,0.6,0.2c0.2,0.1,0.3,0.1,0.4,0.2
			c0.1,0.1,0.2,0.1,0.3,0.1l-0.4,1.1c-0.2-0.1-0.4-0.2-0.7-0.3c-0.3-0.1-0.6-0.1-0.9-0.1c-0.2,0-0.4,0.1-0.6,0.1
			c-0.2,0.1-0.4,0.2-0.6,0.4c-0.2,0.2-0.3,0.4-0.4,0.6c-0.1,0.3-0.2,0.6-0.2,0.9c0,0.3,0.1,0.6,0.1,0.8c0.1,0.3,0.2,0.5,0.3,0.7
			c0.2,0.2,0.3,0.3,0.6,0.4c0.3,0.1,0.5,0.2,0.8,0.2c0.2,0,0.4,0,0.6-0.1c0.2,0,0.3-0.1,0.5-0.1c0.1-0.1,0.3-0.1,0.4-0.1
			c0.1-0.1,0.2-0.1,0.3-0.1l0.4,1.1c-0.2,0.1-0.5,0.2-0.8,0.3C137.5,90.7,137.1,90.7,136.6,90.7z"/>
		<path fill="#888787" d="M143.4,84.2h1.5v6.4h-1.5v-2.7H141v2.7h-1.5v-6.4h1.5v2.5h2.4V84.2z"/>
	</g>
</g>
</svg>
